<?xml version="1.0" encoding="UTF-8" standalone="no"?>
<!-- Created with Inkscape (http://www.inkscape.org/) -->

<svg
   xmlns:dc="http://purl.org/dc/elements/1.1/"
   xmlns:cc="http://creativecommons.org/ns#"
   xmlns:rdf="http://www.w3.org/1999/02/22-rdf-syntax-ns#"
   xmlns:svg="http://www.w3.org/2000/svg"
   xmlns="http://www.w3.org/2000/svg"
   xmlns:sodipodi="http://sodipodi.sourceforge.net/DTD/sodipodi-0.dtd"
   xmlns:inkscape="http://www.inkscape.org/namespaces/inkscape"
   width="450"
   height="450"
   viewBox="0 0 119.06249 119.0625"
   version="1.1"
   id="svg945"
   inkscape:version="0.92.3 (2405546, 2018-03-11)"
   sodipodi:docname="pea.svg">
  <defs
     id="defs939" />
  <sodipodi:namedview
     id="base"
     pagecolor="#ffffff"
     bordercolor="#666666"
     borderopacity="1.0"
     inkscape:pageopacity="0.0"
     inkscape:pageshadow="2"
     inkscape:zoom="0.87"
     inkscape:cx="44.117469"
     inkscape:cy="428.69049"
     inkscape:document-units="mm"
     inkscape:current-layer="layer1"
     showgrid="false"
     units="px"
     inkscape:window-width="1865"
     inkscape:window-height="1025"
     inkscape:window-x="55"
     inkscape:window-y="27"
     inkscape:window-maximized="1" />
  <metadata
     id="metadata942">
    <rdf:RDF>
      <cc:Work
         rdf:about="">
        <dc:format>image/svg+xml</dc:format>
        <dc:type
           rdf:resource="http://purl.org/dc/dcmitype/StillImage" />
        <dc:title></dc:title>
      </cc:Work>
    </rdf:RDF>
  </metadata>
  <g
     inkscape:groupmode="layer"
     id="layer2"
     inkscape:label="Layer 2"
     style="display:inline"
     transform="translate(0,-177.93745)" />
  <g
     inkscape:label="Layer 1"
     inkscape:groupmode="layer"
     id="layer1"
     style="display:inline"
     transform="translate(0,-177.93745)">
    <path
       sodipodi:nodetypes="scccss"
       inkscape:connector-curvature="0"
       id="path5291"
       d="m 64.778413,188.15818 c -12.996252,-0.17067 -26.779054,5.29247 -38.782641,15.53091 -19.1104133,19.40492 -23.625551,51.25614 -9.110225,66.83768 17.741746,19.04492 52.810327,21.04839 75.708271,7.62456 21.905842,-12.84225 23.975002,-47.10281 6.252765,-71.71181 -8.861102,-12.3045 -21.071918,-18.11067 -34.06817,-18.28134 z"
       style="display:inline;fill:#44aa00;fill-rule:evenodd;stroke:none;stroke-width:0.148513;stroke-linecap:butt;stroke-linejoin:miter;stroke-miterlimit:4;stroke-dasharray:none;stroke-opacity:1" />
    <path
       style="display:inline;fill:#55d400;fill-rule:evenodd;stroke:none;stroke-width:0.13721152;stroke-linecap:butt;stroke-linejoin:miter;stroke-miterlimit:4;stroke-dasharray:none;stroke-opacity:1"
       d="m 63.886612,189.15978 c -8.594963,-0.10148 -17.542578,2.07335 -26.061973,6.28385 -4.066604,2.25431 -8.036404,5.01084 -11.828736,8.2455 -9.417425,9.56256 -15.287296,22.14726 -17.0852619,34.31834 -0.3828804,9.06219 2.2732769,17.4841 8.3095699,23.3097 17.287386,16.68393 51.457598,18.43939 73.76914,6.6797 21.344829,-11.25021 23.361019,-41.26381 6.092651,-62.82204 -8.634175,-10.77912 -20.531966,-15.86554 -33.19539,-16.01505 z"
       id="path931-7"
       inkscape:connector-curvature="0" />
    <path
       style="display:inline;fill:#ccffaa;fill-rule:evenodd;stroke:none;stroke-width:0.15403499;stroke-linecap:butt;stroke-linejoin:miter;stroke-miterlimit:4;stroke-dasharray:none;stroke-opacity:1"
       d="m 36.061815,237.21432 c -5.574724,0 -5.046448,13.67351 -0.527988,14.02561 3.869326,-0.54978 5.896536,-13.09103 0.826353,-14.39744 -0.254209,-0.0655 -9.21e-4,0.36878 -0.298353,0.37184 z"
       id="path981-5"
       inkscape:connector-curvature="0"
       sodipodi:nodetypes="ccscc" />
    <path
       style="display:inline;fill:#ccffaa;fill-rule:evenodd;stroke:none;stroke-width:0.15403499;stroke-linecap:butt;stroke-linejoin:miter;stroke-miterlimit:4;stroke-dasharray:none;stroke-opacity:1"
       d="m 79.099776,235.70963 c -4.166372,0.82154 -3.051848,14.55375 1.583974,14.08428 3.11011,-0.23473 4.812287,-14.22453 -1.583974,-14.08428 z"
       id="path986-3"
       inkscape:connector-curvature="0"
       sodipodi:nodetypes="ccc" />
    <path
       style="display:inline;opacity:1;fill:#338000;fill-rule:evenodd;stroke:none;stroke-width:0.08732692;stroke-linecap:butt;stroke-linejoin:miter;stroke-miterlimit:4;stroke-dasharray:none;stroke-opacity:1"
       d="m 67.908814,254.61737 -19.039267,1.29065 c 0.133479,4.09291 3.648078,10.81003 10.365771,10.32066 6.717701,-0.48937 9.830187,-6.7621 8.673496,-11.61131 z"
       id="path922-5"
       inkscape:connector-curvature="0"
       sodipodi:nodetypes="ccsc" />
    <path
       style="display:inline;fill:#112b00;fill-rule:evenodd;stroke:none;stroke-width:0.15001312;stroke-linecap:butt;stroke-linejoin:miter;stroke-miterlimit:4;stroke-dasharray:none;stroke-opacity:1"
       d="m 64.831415,187.66007 c -13.127526,-0.1724 -27.049549,5.34593 -39.174385,15.68779 -19.303448,19.60093 -23.864193,51.77388 -9.202248,67.51281 17.920957,19.23729 53.343765,21.26099 76.473,7.70157 22.127118,-12.97197 24.217178,-47.5786 6.315925,-72.43617 -8.950608,-12.42879 -21.284766,-18.2936 -34.412292,-18.466 z m -3.375945,2.38197 c 13.045338,-0.10638 25.403382,5.87231 34.515135,18.41591 14.464755,19.91272 17.763505,55.81585 -3.295462,68.18232 C 70.662434,289.56678 36.23599,286.47418 19.18013,268.13484 5.225963,253.13056 8.70958,222.89694 27.081185,204.21092 37.8995,194.96799 49.944875,190.13589 61.45547,190.04204 Z"
       id="path931"
       inkscape:connector-curvature="0" />
    <path
       style="display:inline;fill:#112b00;fill-rule:evenodd;stroke:none;stroke-width:0.15875;stroke-linecap:butt;stroke-linejoin:miter;stroke-miterlimit:4;stroke-dasharray:none;stroke-opacity:1"
       d="m 36.072964,237.00545 c -5.745366,0 -5.20092,14.09206 -0.544149,14.45493 3.987765,-0.5666 6.077029,-13.49174 0.851647,-14.83814 -0.26199,-0.0675 -9.49e-4,0.38007 -0.307485,0.38322 z m 0.139545,1.38596 c 2.530395,-0.18603 2.063394,11.0604 -0.588335,11.06677 -2.460994,0.0756 -3.367272,-9.67475 0.334845,-11.00399 0.08788,-0.0338 0.171855,-0.054 0.253485,-0.0628 z"
       id="path981"
       inkscape:connector-curvature="0"
       sodipodi:nodetypes="ccsccccccc" />
    <path
       style="display:inline;fill:#112b00;fill-rule:evenodd;stroke:none;stroke-width:0.15875;stroke-linecap:butt;stroke-linejoin:miter;stroke-miterlimit:4;stroke-dasharray:none;stroke-opacity:1"
       d="m 79.072664,235.4939 c -4.293904,0.84669 -3.145266,14.99925 1.632461,14.51541 3.205309,-0.24192 4.959589,-14.65995 -1.632461,-14.51541 z m 0.423225,1.33016 c 3.931043,1.14907 2.963142,10.94794 0.967383,11.8551 -2.479581,-1.20955 -3.023622,-11.18985 -0.967383,-11.8551 z"
       id="path986"
       inkscape:connector-curvature="0"
       sodipodi:nodetypes="cccccc" />
    <path
       style="display:inline;opacity:1;fill:#112b00;fill-rule:evenodd;stroke:none;stroke-width:0.09;stroke-linecap:butt;stroke-linejoin:miter;stroke-miterlimit:4;stroke-dasharray:none;stroke-opacity:1"
       d="m 68.196587,254.43927 -19.622061,1.33016 c 0.137565,4.21819 3.759746,11.14092 10.683068,10.63657 6.923331,-0.50435 10.131088,-6.96909 8.938993,-11.96673 z m -1.4917,1.48501 c 0.779445,5.91463 -5.157509,9.12937 -8.091437,9.06087 -4.843215,-0.11308 -7.244811,-3.11743 -7.932073,-7.29026 z"
       id="path922"
       inkscape:connector-curvature="0"
       sodipodi:nodetypes="ccsccccc" />
  </g>
</svg>
